<?xml version="1.0" encoding="iso-8859-1"?>
<!-- Generator: Adobe Illustrator 21.0.0, SVG Export Plug-In . SVG Version: 6.00 Build 0)  -->
<svg xmlns="http://www.w3.org/2000/svg" xmlns:xlink="http://www.w3.org/1999/xlink" version="1.1" id="Capa_1" x="0px" y="0px" viewBox="0 0 511.731 511.731" style="enable-background:new 0 0 511.731 511.731;" xml:space="preserve" width="512" height="512">
<g>
	<g>
		<polyline style="fill:#F4B21E;" points="58.305,312.759 7.619,363.497 53.04,364.966 54.507,410.439 99.925,411.905     101.39,457.375 146.807,458.841 148.27,504.31 198.956,453.572   "/>
		<g>
			<polygon style="fill:#FDDB33;" points="192.956,459.572 52.305,318.759 287.456,83.337 428.107,224.15    "/>
			<polygon style="fill:#F9C032;" points="287.456,83.337 270.956,99.856 395.107,224.15 176.456,443.053 192.956,459.572      428.107,224.15    "/>
			<path style="fill:#EBA875;" d="M367.467,18.635c15.082-15.1,39.535-15.1,54.617,0l70.65,70.732     c15.082,15.1,15.082,39.581,0,54.68l-73.052,73.136L294.415,91.771L367.467,18.635z"/>
			<path style="fill:#E09760;" d="M492.734,89.366l-70.65-70.731c-11.849-11.863-29.48-14.4-43.809-7.624     c3.91,1.849,7.575,4.387,10.809,7.624l70.65,70.731c15.082,15.1,15.082,39.581,0,54.68l-56.552,56.617l16.5,16.519l73.052-73.136     C507.816,128.947,507.816,104.466,492.734,89.366z"/>
		</g>
		<polyline style="fill:#F4B21E;" points="350.832,224.31 428.332,224.31 287.332,83.31 147.832,224.31 425.332,224.31   "/>
	</g>
	<g>
		<path d="M498.04,149.346c17.977-17.997,17.977-47.282,0-65.279l-70.65-70.733c-17.758-17.777-47.47-17.779-65.23,0.001    L349.999,25.51c-6.633,6.641,3.68,17.543,10.613,10.6l12.161-12.175c11.974-11.989,32.027-11.992,44.004-0.001l70.65,70.732    c12.138,12.153,12.138,31.927,0,44.08l-67.013,67.09l-114.667-114.8l29.639-29.679c6.633-6.64-3.68-17.544-10.613-10.6    l-29.626,29.666l-2.385-2.388c-2.891-2.896-7.722-2.896-10.612,0L2.313,358.197c-4.481,4.485-1.347,12.588,5.064,12.796    l38.393,1.241l1.241,38.447c0.127,3.952,3.302,7.126,7.254,7.254l38.39,1.239l1.238,38.442c0.127,3.953,3.302,7.127,7.254,7.255    l38.389,1.238l1.237,38.441c0.204,6.341,8.26,9.608,12.802,5.059l83.563-83.659c6.632-6.641-3.681-17.544-10.613-10.6    l-33.57,33.609L62.906,318.759l86.848-86.949h260.1L256.526,385.317c-6.633,6.641,3.68,17.545,10.612,10.6L432.04,230.825    c4.549-2.595,5.024-9.104,0.995-12.353l-2.02-2.022L498.04,149.346z M182.356,459.573l-27.147,27.178l-0.906-28.151    c-0.127-3.953-3.302-7.127-7.254-7.255l-38.39-1.238l-1.238-38.442c-0.127-3.953-3.302-7.127-7.254-7.255l-38.39-1.239    l-1.241-38.446c-0.127-3.952-3.302-7.126-7.254-7.254l-28.133-0.91l27.156-27.188L182.356,459.573z M164.737,216.81l122.558-122.7    c0.354,1.082,0.954,2.101,1.814,2.961L408.71,216.81H164.737z"/>
		<path d="M350.283,90.497c-2.931,2.928-2.933,7.676-0.006,10.606l60.802,60.873c6.779,6.788,17.541-3.663,10.612-10.6    L360.89,90.504C357.962,87.573,353.214,87.572,350.283,90.497z"/>
		<path d="M448.618,131.908c6.354,0,9.877-8.224,5.306-12.8l-60.802-60.873c-6.631-6.641-17.547,3.657-10.612,10.6l60.802,60.873    C444.777,131.174,446.697,131.908,448.618,131.908z"/>
	</g>
</g>















</svg>
