<svg xmlns="http://www.w3.org/2000/svg" xmlns:xlink="http://www.w3.org/1999/xlink" viewBox="0 0 76 38" fill="#fff" fill-rule="evenodd" stroke="#000" stroke-linecap="round" stroke-linejoin="round"><style><![CDATA[.B{stroke-width:.075}.C{fill-rule:nonzero}]]></style><use xlink:href="#R" x=".5" y=".5"/><defs><linearGradient id="A" x1="50.00%" y1="100.00%" x2="50.00%" y2="0.00%"><stop offset="26.4%" stop-color="#daf0f4"/><stop offset="99.4%" stop-color="#fff"/></linearGradient><linearGradient id="B" x1="100.00%" y1="50.00%" x2="0.00%" y2="50.00%"><stop offset="0%" stop-color="#345647"/><stop offset="100%" stop-color="#003d3b"/></linearGradient><linearGradient id="C" x1="100.00%" y1="50.00%" x2="-0.00%" y2="50.00%"><stop offset=".6%" stop-color="#466c5a"/><stop offset="100%" stop-color="#0b4947"/></linearGradient><linearGradient id="D" x1="100.48%" y1="58.81%" x2="-1.90%" y2="43.32%"><stop offset=".6%" stop-color="#8ed8f8"/><stop offset="100%" stop-color="#daf0f4"/></linearGradient><linearGradient id="E" x1="99.89%" y1="58.06%" x2="-0.39%" y2="40.69%"><stop offset=".6%" stop-color="#8ed8f8"/><stop offset="100%" stop-color="#daf0f4"/></linearGradient><linearGradient id="F" x1="50.00%" y1="105.93%" x2="50.00%" y2="11.05%"><stop offset="26.4%" stop-color="#daf0f4"/><stop offset="99.4%" stop-color="#fff"/></linearGradient><linearGradient id="G" x1="100.00%" y1="50.00%" x2="0.00%" y2="50.00%"><stop offset=".6%" stop-color="#466c5a"/><stop offset="100%" stop-color="#0b4947"/></linearGradient><linearGradient id="H" x1="49.34%" y1="104.21%" x2="54.15%" y2="-2.39%"><stop offset="0%" stop-color="#4a694a"/><stop offset="100%" stop-color="#789747"/></linearGradient><linearGradient id="I" x1="51.04%" y1="-0.23%" x2="49.74%" y2="100.84%"><stop offset=".6%" stop-color="#8ed8f8"/><stop offset="100%" stop-color="#daf0f4"/></linearGradient><linearGradient id="J" y2="50.00%" x2="100.00%" y1="50.00%" x1="-0.00%"><stop stop-color="#345647" offset="0%"/><stop stop-color="#003d3b" offset="100%"/></linearGradient><linearGradient id="K" y2="50.00%" x2="100.00%" y1="50.00%" x1="0.00%"><stop stop-color="#466c5a" offset=".6%"/><stop stop-color="#0b4947" offset="100%"/></linearGradient><linearGradient id="L" x1="-0.52%" y1="316.89%" x2="102.17%" y2="-215.09%"><stop offset="0%" stop-color="#daf0f4"/><stop offset="99.4%" stop-color="#fff"/></linearGradient><linearGradient id="M" x1="0.53%" y1="281.84%" x2="100.30%" y2="-191.33%"><stop offset="0%" stop-color="#daf0f4"/><stop offset="99.4%" stop-color="#fff"/></linearGradient><linearGradient id="N" x1="50.77%" y1="7.07%" x2="48.37%" y2="104.02%"><stop offset=".6%" stop-color="#8ed8f8"/><stop offset="100%" stop-color="#daf0f4"/></linearGradient><linearGradient id="O" y2="50.02%" x2="100.00%" y1="50.02%" x1="-0.01%"><stop stop-color="#466c5a" offset=".6%"/><stop stop-color="#0b4947" offset="100%"/></linearGradient><linearGradient id="P" x1="50.78%" y1="103.57%" x2="45.25%" y2="-2.01%"><stop offset="0%" stop-color="#4a694a"/><stop offset="100%" stop-color="#789747"/></linearGradient><linearGradient id="Q" x1="53.79%" y1="101.71%" x2="46.28%" y2="-3.87%"><stop offset="0%" stop-color="#4a694a"/><stop offset="100%" stop-color="#789747"/></linearGradient></defs><symbol id="R" overflow="visible"><g stroke="#414042"><g class="B C"><path d="M44.203 15.64c-.487.167-1.164-.163-1.577.452s-2.083 0-2.083 0-1.439-.615-2.043 0-5.979-1.605-5.979-1.605 2.072-1.145 2.492-2.417 1.329-2.391 1.979-3.062c.65-.665 1.821-1.135 2.286-2.046s.699-2.884 1.544-2.7c.844.178 1.358 1.247 2.194 1.913s1.663 1.418 2.286 1.576 2.511 2.771 3.81 3.378 4.364 4.179 4.364 4.179-2.236 2.393-3.163 2.192-5.62-2.025-6.11-1.861z" fill="url(#A)"/><path d="M.026 33.589c-.385-.924 3.673-4.276 3.75-5.249.072-.914.882-.397 1.284-1.413.309-.776 1.654-1.672 2.368-2.221.772-.593.673-3.27 1.632-3.845.501-.3 1.158-.709 1.647-1.122 1.192-1.001 2.776-2.75 5.014-3.007 1.232-.138 1.111.306 2.017.009.696-.229 1.4-.667 2.113-.946.882-.344.634-.539 1.544-.598.359-.026.759.299 1.199.312 1.698.047 3.394-.992 4.531-1.78 1.716-1.186 3.659-3.824 4.489-3.969s4.879 3.267 6.805 2.757c.53-.142.954-.784 1.406-.875.223-.045.583-.268.907-.092s.409.292.681.257c.263-.031.482-.341.751-.42.967-.291 2.554-1.116 3.493-.972 1.083.163 2.692 1.864 3.666 2.366 1.023.522 2.155 1.043 3.464 1.203 1.107.138 3.473-2.268 4.301-1.864 1.03.505 2.575 2.109 2.961 2.246s1.241 1.252 2.128 2.028c1.258 1.097 2.504 4.278 3.287 4.318.783.034 2.227 4.926 3.484 5.045l2.9 5.057-7.817-.662c-2.414-.393-5-.417-7.545-.213-6.982.56-13.285 2.397-19.799 3.998-3.25.801-4.399-1.314-7.52-1.264-1.921.031-6.364 1.061-7.224.983-.883-.079-1.771-.169-2.669-.214-4.699-.235-11.695.297-16.284.592.021-.078-3.063-.407-2.961-.444z" fill="url(#B)"/><path d="M32.549 25.015c1.221.658 1.141.581 1.873.77 2.396.621 3.923.57 4.251.474 1.002-.303-2.027-4.312-2.027-4.312s-2.357-2.896-3.019-2.896-2.298 5.305-1.078 5.964z" fill="url(#C)"/><path d="M26.717.193c-.477.261-1.944 1.782-2.325 2.71s-1.367 1.542-1.883 2.662c-.211.453-2.107 2.446-3.312 2.912-1.771.69-7.651 10.287-7.623 10.603.016.196 6.169-3.968 7.639-3.334.919.394 2.907-3.927 4.145-3.549 2.102.647 4.197 2.16 4.197 2.16l2.11-5.82s-1.286-7.182-1.752-7.229-.719-1.375-1.195-1.116z" fill="url(#D)"/><path d="M27.049 6.143c-.484.34-1.426 1.531-1.828 2.711s-3.011 1.467-3.557 2.895-5.978 4.314-5.943 4.983c.004.069 1.578.893 2.491 1.657.41.347 11.494-3.653 11.494-3.653s-1.116-9.061-1.583-9.11-.589.17-1.073.516z" fill="url(#E)"/><path d="M30.637 19.829c.116.083.841.135 1.215-.105l.906-.54c.208-.093.931-.097 1.563-.253.417-.107.957-.523 1.494-.693.565-.179 1.139-.102 1.874-.011.34.041.741.517.976.622.921.404 1.094.723 2.168.4 1.487-.448 2.215-4.366 2.215-4.366l-4.586-5.255c-.63-.612-.384.853-1.136.214-.886-.756-1.641-2.747-2.295-3.577-.706-.416-1.322-2.424-2.094-3.484-.626-.863-1.07-.684-1.869-.999-.814-.483-1.843-.29-2.131-.643-.444-.549-1.029-.963-1.295-1.054-.464-.158-.823-.073-.925.11s.634.241.322 1.286 1.076 2.709.658 4.213c-.358 1.28 1.172 4.851.906 6.078-.384 1.767 1.796 5.866 1.71 5.87 0 0-.175 1.828.325 2.189z" fill="url(#F)"/><path d="M31.233 10.124c-.654.259-1.463.747-1.93 1.554s-2.139.979-2.786 1.958c-.261.395-3.484 2.144-5.147 2.635-2.445.727-4.134 3.342-4.071 3.602.04.167 3.49 4.142 5.613 4.549 1.324.251 2.367-.917 4.137-.703 3.015.366 6.14 1.615 6.14 1.615l2.834-8.48s-2.357-5.897-3.021-5.897-1.119-1.091-1.769-.834z" fill="url(#G)"/><path d="M56.826 22.768c-.785-1.028-2.079-3.463-3.809-5.35l-3.138-3.517c-2.008-2.043-2.498-3.239-4.471-3.546-1.375-.085-2.302 5.065-3.048 4.855-1.026-.289-2.182-.519-3.349-1.341-.952-.671-2.079-.945-2.868-1.52l-3.615-2.394c-.936-.331-1.186-.162-1.295.169-.134.163.912.149.551 1.048s1.721 2.173 1.248 3.469c-.403 1.1 2.02 3.959 1.737 5.006-.41 1.51 2.978 4.756 2.859 4.763 0 0 19.986-.614 19.198-1.643z" fill="url(#C)"/><path d="M3.493 34.53c.552.823 3.103-1.039 3.779-.766-.725 1.479 1.686.291 2.567.217 1.005-.086 2.11.344 2.828.222.828-.139.662-.348 1.778-.465.464-.048 1.265.377 2.091.556.948.208 1.931-.766 1.931-.766s-.181-1.66-1.114-3.112c-.417-.647-.615-.749-.867-1.149-.363-.575-.482-.807-1.048-.95-.227-.058-.466-.612-.659-.635-.188-.022-.69-2.202-1.086-2.554-.238-.21-.274-.552-.638-.55-.972.003-.879.853-2.23.617s-2.326 3.466-4.002 3.673-2.084 3.398-6.646 4.949c2.974.216 2.769-.111 3.319.713z" fill="url(#H)"/></g><g fill="none"><path d="M6.463 30.92c1.397-.247 1.379-.621 2.502-.783.16-.023.592-.011.738-.003 1.176.062 1.415 1.092 1.855 1.174" class="B"/><path d="M8.345 32.427c1.397-.246 1.458-.962 2.579-1.126.161-.022.593-.009.74-.002 1.175.061 1.415 1.091 1.855 1.174m1.373-4.783s-.813.014-1.322.562l-1.035 1.029c-.757.725-1.397.804-1.397.804" class="B"/></g><g class="C"><path d="M49.938 19.753c.273.108.658-.107.888.296s1.176 0 1.176 0 .81-.403 1.151 0 3.369-1.054 3.369-1.054-1.167-.751-1.403-1.587-.749-1.569-1.117-2.008-1.026-.746-1.288-1.343-.393-1.892-.868-1.773-.767.819-1.239 1.258-.937.93-1.288 1.033-1.413 1.819-2.148 2.219-2.459 2.743-2.459 2.743 1.261 1.571 1.784 1.438 3.166-1.33 3.443-1.22z" fill="url(#I)" class="B"/><path d="M74.835 31.533c.218-.607-2.071-2.806-2.113-3.445-.04-.6-.497-.261-.724-.928-.174-.51-.932-1.098-1.334-1.457-.436-.389-.381-2.147-.92-2.524-.282-.197-.653-.465-.928-.738-.672-.657-1.293-1.533-2.554-1.7-.695-.091-.899-.071-1.41-.266-.391-.15-.788-.437-1.19-.622-.496-.226-.356-.353-.87-.393-.202-.017-.427.196-.674.204-.958.032-1.913-.652-2.554-1.168-.968-.779-2.063-2.511-2.531-2.606s-2.749 2.144-3.835 1.81c-.298-.093-.536-.513-.793-.574-.126-.029-.328-.175-.51-.06s-.34-.062-.492-.084-.164.03-.315-.024c-.546-.19-1.441-.731-1.968-.636-.612.106-1.519 1.224-2.068 1.552-.575.343-1.212.684-1.949.789-.625.092-2.034-.2-2.5.066-.583.331-1.376.095-1.593.184s-.699.822-1.201 1.332c-.708.72-1.41 2.809-1.852 2.834s-1.96 2.738-2.671 2.818l-.927 3.814 4.406-.435c1.36-.258 2.816-.273 4.251-.14 3.936.367 7.488 1.573 11.16 2.624 3.377.97 6.474-.13 9.811-.325 2.649-.153 6.592.195 9.178.39-.012-.051 1.726-.268 1.668-.293z" fill="url(#J)" class="B"/><path d="M58.047 20.56c.263.529-.852 4.911-1.539 5.345s-.644.38-1.056.506c-1.351.408-2.211.374-2.395.311-.565-.198 1.142-3.815 1.142-3.815s1.328-3.868 1.702-3.868 1.885.994 2.147 1.522z" fill="url(#K)" class="B"/><path d="M59.794 9.612c.269.171 1.096 1.169 1.31 1.778s.769 1.012 1.062 1.748c.118.296 1.187 1.606 1.865 1.912 1 .452 4.313 6.752 4.297 6.96-.01.129-3.475-2.605-4.304-2.189-.519.258-1.64-2.578-2.336-2.329-1.185.425-2.366 1.417-2.366 1.417l-1.188-3.819s.724-4.716.986-4.745.407-.904.675-.732z" fill="url(#L)" class="B"/><path d="M59.607 13.517c.272.223.803 1.004 1.031 1.78s1.697.963 2.005 1.902 3.786 3.108 3.767 3.547c-.003.046-1.308.309-1.822.811-.232.227-5.035 2.559-5.316 2.779-.921.729-1.529.75-1.665.668-.412-.249.503-5.847.503-5.847l.892-5.978c.265-.03.333.111.606.338z" fill="url(#M)" class="B"/><path d="M57.584 22.501c-.065.055-.474.089-.685-.069l-.509-.354c-.119-.062-.526-.064-.881-.168-.236-.069-.54-.343-.841-.454-.32-.118-.644-.067-1.057-.007-.192.027-.417.339-.551.407-.519.265-.616.475-1.22.262-.838-.293-1.25-2.865-1.25-2.865s1.48-2.352 2.129-3.015c.355-.401.672.124 1.096-.295.501-.496.926-1.803 1.294-2.349.398-.274.746-1.59 1.178-2.287.354-.566.605-.448 1.055-.654.457-.318 1.039-.191 1.2-.423.251-.361.58-.633.73-.693.262-.104.465-.048.522.074s-.357.157-.181.843-.606 1.777-.371 2.764c.2.841-.66 3.185-.51 3.99.215 1.16-1.014 3.85-.964 3.853 0 0 .097 1.202-.184 1.438z" fill="url(#N)" class="B"/><path d="M57.248 16.131c.368.171.824.491 1.087 1.021s1.206.642 1.571 1.285c.146.259 1.963 1.407 2.9 1.728 1.38.477 2.33 2.194 2.295 2.366-.023.109-1.967 2.719-3.163 2.985-.746.165-1.535-.81-2.533-.67-1.699.241-2.7 1.084-2.7 1.084l-2.157-5.381s1.328-3.871 1.701-3.871.631-.716.997-.547z" fill="url(#O)" class="B"/><path d="M53.293 26.696c-.096.04-5.705 2.033-6.123 1.912-.443-.128-6.369-1.895-6.115-2.57.378-1.004 1.326-.932 1.77-1.607s1.173-2.273 2.146-3.512l1.769-2.308c1.132-1.341 1.408-2.126 2.52-2.328.775-.055 1.297 3.325 1.718 3.188.579-.191 1.23-.342 1.887-.881.536-.44 1.172-.62 1.616-.998l2.037-1.572c.528-.216.668-.105.73.111.076.107-.513.098-.311.689s-.969 1.426-.703 2.275c.228.723-1.139 2.599-.979 3.287.232.991-1.679 3.122-1.611 3.127 0 0 .062 1.015-.352 1.187z" fill="url(#K)" class="B"/><path d="M72.883 32.15c-.311.541-1.75-.681-2.129-.502.407.972-1.08.228-1.577.18-.566-.055-1.06.188-1.465.109-.466-.092-.415-.113-1.045-.19-.261-.032-.669.132-1.135.25-.535.136-1.088-.503-1.088-.503s.101-1.09.628-2.043c.234-.424.346-.492.487-.754.205-.377.273-.531.591-.623.127-.039.262-.404.372-.417s.388-1.446.613-1.676c.135-.138.154-.364.359-.361.548.001.496.56 1.257.404s1.312 2.275 2.255 2.411 1.215 2.126 3.787 3.145c-1.494.347-1.602.031-1.911.571z" fill="url(#P)" class="B"/></g><g fill="none"><path d="M71.208 29.78c-.787-.161-.777-.407-1.41-.514-.09-.014-.335-.007-.418-.002-.661.04-.796.717-1.045.771" class="B"/><path d="M70.147 30.771c-.787-.162-.821-.632-1.453-.739-.092-.014-.336-.006-.418-.002-.662.04-.798.716-1.045.77m-.773-3.137c0 0 .458.008.744.368l.584.677c.426.475.788.527.788.527" class="B"/></g><path d="M60.056 33.263c-.518.902-2.958-.633-3.593-.335.769 1.051-2.634-.056-3.463-.137-.944-.094-.852.303-1.527.17-.777-.153-.886-.864-1.934-.992-.436-.053-.923.894-1.699 1.093-.891.225-1.815-.839-1.815-.839s.17-1.818 1.046-3.405c.392-.708.577-.819.815-1.256.342-.628.452-.883.984-1.041.214-.062.438-.669.62-.695.177-.024.647-2.409 1.021-2.793.223-.23.255-.604.598-.602.913.004.827.934 2.096.675s2.184 3.791 3.758 4.017 2.086 3.77 6.371 5.469c-2.793.236-2.761-.233-3.278.67z" fill="url(#P)" class="B C"/><g fill="none"><path d="M57.299 29.368c-1.311-.27-1.297-.679-2.351-.857-.15-.026-.555-.013-.694-.003-1.103.067-1.329 1.194-1.742 1.284" class="B"/><path d="M55.533 31.016c-1.314-.268-1.369-1.052-2.424-1.228-.152-.026-.556-.013-.693-.004-1.106.067-1.329 1.194-1.743 1.284m-1.291-5.231c0 0 .764.014 1.243.614l.971 1.127c.71.793 1.312.879 1.312.879" class="B"/></g><g class="C"><path d="M52.464 35.575c-.518.902-2.914-1.137-3.549-.838.683 1.62-6.399-9.062-6.027-9.447.222-.231.256-.603.597-.602.915.004.827.934 2.097.675s2.184 3.79 3.758 4.017 1.956 3.717 6.244 5.415c-2.795.236-2.601-.123-3.12.779z" fill="url(#Q)" class="B"/><path d="M27.749 36.475c.823 1.232 4.637-1.554 5.647-1.145-1.084 2.213 2.345-.27 3.663-.381 1.504-.127 3.329 1.219 4.401 1.038 1.237-.209 1.411-1.18 3.079-1.355.694-.072 1.47 1.221 2.705 1.492 1.416.309 2.885-1.146 2.885-1.146s-.27-2.483-1.664-4.653c-.623-.967-.919-1.119-1.296-1.718-.543-.858-.721-1.206-1.569-1.42-.339-.086-.695-.915-.986-.95-.281-.034-1.031-3.291-1.624-3.817-.356-.314-.408-.825-.953-.822-1.454.005-1.316 1.276-3.335.923s-3.477 5.18-5.983 5.489-3.114 5.08-9.936 7.4c4.448.323 4.141-.168 4.965 1.065z" fill="url(#H)" class="B"/></g><g fill="none"><path d="M31.948 31.198c2.089-.37 2.061-.928 3.741-1.171.24-.036.885-.016 1.105-.004 1.756.091 2.114 1.631 2.772 1.755" class="B"/><path d="M34.762 33.451c2.088-.369 2.178-1.438 3.855-1.681.241-.035.886-.016 1.106-.005 1.757.092 2.115 1.631 2.773 1.756m1.913-7.101s-1.074-.028-1.836.792l-1.546 1.54c-1.132 1.083-2.088 1.201-2.088 1.201" class="B"/></g></g></symbol></svg>